<?xml version="1.0" standalone="no"?>
<!DOCTYPE svg PUBLIC "-//W3C//DTD SVG 20010904//EN"
 "http://www.w3.org/TR/2001/REC-SVG-20010904/DTD/svg10.dtd">
<svg version="1.0" xmlns="http://www.w3.org/2000/svg"
 width="500.000000pt" height="500.000000pt" viewBox="0 0 500.000000 500.000000"
 preserveAspectRatio="xMidYMid meet">

<g transform="translate(0.000000,500.000000) scale(0.100000,-0.100000)" fill ="#de4237" stroke="none">
<path d="M3210 3977 c-47 -23 -125 -61 -175 -85 -278 -133 -576 -319 -884
-551 -62 -47 -126 -95 -140 -106 -76 -56 -289 -243 -438 -384 -336 -317 -662
-671 -928 -1010 -50 -63 -106 -133 -125 -156 -19 -24 -73 -96 -120 -160 -47
-65 -96 -132 -110 -149 -60 -73 -102 -144 -98 -167 7 -51 20 -46 443 151 33
16 112 52 175 81 63 29 151 69 195 90 44 20 157 71 250 114 94 42 206 94 250
115 44 21 161 75 260 120 99 45 216 100 261 121 72 35 89 39 156 39 88 0 101
-7 263 -155 55 -50 222 -198 370 -330 149 -132 282 -251 297 -266 54 -53 135
-119 147 -119 12 0 61 99 61 123 0 7 18 68 39 137 67 212 118 537 151 961 5
69 12 133 15 141 6 15 66 46 140 72 22 7 72 27 110 44 39 17 113 47 165 67 52
20 138 54 190 76 52 21 100 39 106 39 6 0 52 18 103 40 50 22 97 40 103 40 6
0 56 18 112 39 56 22 153 59 216 83 111 42 115 45 115 73 0 23 -6 31 -25 37
-80 23 -381 88 -407 88 -17 0 -84 11 -149 24 -150 31 -357 53 -594 65 -102 5
-193 12 -202 16 -20 8 -25 30 -37 170 -8 90 -50 290 -88 420 -16 54 -47 95
-72 94 -9 0 -54 -19 -101 -42z"/>
<path d="M1729 3216 c-2 -2 -87 -18 -189 -35 -102 -18 -234 -43 -295 -56 -60
-13 -150 -31 -200 -40 -49 -9 -151 -33 -225 -52 -74 -20 -148 -38 -165 -41
-16 -2 -86 -22 -154 -43 -68 -21 -131 -39 -141 -39 -22 0 -53 -34 -48 -55 3
-15 133 -67 248 -100 55 -16 218 -75 320 -117 41 -17 93 -33 116 -35 40 -5 44
-2 171 109 72 62 147 127 168 143 126 99 252 194 335 250 120 82 130 90 130
104 0 10 -61 16 -71 7z"/>
</g>
</svg>
